<svg xmlns="http://www.w3.org/2000/svg" xmlns:xlink="http://www.w3.org/1999/xlink" width="500" zoomAndPan="magnify" viewBox="0 0 375 374.999991" height="500" preserveAspectRatio="xMidYMid meet" version="1.0"><defs><clipPath id="ef10fc69f6"><path d="M 87.144531 164.8125 L 200.371094 164.8125 L 200.371094 187.3125 L 87.144531 187.3125 Z M 87.144531 164.8125 " clip-rule="nonzero"/></clipPath><clipPath id="32ae4c900e"><path d="M 200.554688 163 L 227.554688 163 L 227.554688 189.25 L 200.554688 189.25 Z M 200.554688 163 " clip-rule="nonzero"/></clipPath></defs><g clip-path="url(#ef10fc69f6)"><path fill="#3d857e" d="M 110.542969 174.308594 L 106.335938 178.105469 C 105.628906 178.742188 105.207031 180.03125 105.402344 180.964844 L 106.550781 186.421875 C 106.746094 187.355469 106.230469 187.730469 105.402344 187.257812 L 100.554688 184.488281 C 100.140625 184.25 99.597656 184.132812 99.058594 184.128906 C 98.507812 184.128906 97.957031 184.25 97.542969 184.488281 L 92.664062 187.285156 C 91.835938 187.761719 91.324219 187.386719 91.523438 186.453125 L 92.710938 180.90625 C 92.914062 179.972656 92.492188 178.6875 91.777344 178.054688 L 87.574219 174.304688 C 86.863281 173.671875 87.054688 173.066406 88.003906 172.96875 L 93.609375 172.375 C 94.558594 172.277344 95.65625 171.480469 96.042969 170.609375 L 98.328125 165.46875 C 98.527344 165.019531 98.792969 164.800781 99.058594 164.816406 C 99.304688 164.824219 99.554688 165.042969 99.742188 165.46875 L 102.03125 170.601562 C 102.421875 171.472656 103.515625 172.269531 104.464844 172.371094 L 110.105469 172.964844 C 111.054688 173.066406 111.253906 173.671875 110.542969 174.308594 Z M 139.859375 172.964844 L 134.21875 172.371094 C 133.269531 172.269531 132.175781 171.472656 131.785156 170.601562 L 129.496094 165.46875 C 129.308594 165.042969 129.058594 164.824219 128.8125 164.816406 C 128.546875 164.800781 128.28125 165.019531 128.082031 165.46875 L 125.796875 170.609375 C 125.410156 171.480469 124.3125 172.277344 123.367188 172.375 L 117.757812 172.96875 C 116.808594 173.066406 116.617188 173.671875 117.328125 174.304688 L 121.53125 178.054688 C 122.246094 178.6875 122.664062 179.972656 122.464844 180.90625 L 121.277344 186.453125 C 121.074219 187.386719 121.589844 187.761719 122.417969 187.285156 L 127.296875 184.488281 C 127.710938 184.25 128.261719 184.128906 128.8125 184.128906 C 129.355469 184.132812 129.894531 184.25 130.308594 184.488281 L 135.152344 187.257812 C 135.980469 187.730469 136.5 187.355469 136.304688 186.421875 L 135.15625 180.964844 C 134.960938 180.03125 135.382812 178.742188 136.089844 178.105469 L 140.296875 174.308594 C 141.007812 173.671875 140.808594 173.066406 139.859375 172.964844 Z M 169.613281 172.964844 L 163.972656 172.371094 C 163.023438 172.269531 161.929688 171.472656 161.539062 170.601562 L 159.25 165.46875 C 159.058594 165.042969 158.8125 164.824219 158.5625 164.816406 C 158.300781 164.800781 158.035156 165.019531 157.835938 165.46875 L 155.550781 170.609375 C 155.160156 171.480469 154.066406 172.277344 153.117188 172.375 L 147.511719 172.96875 C 146.5625 173.066406 146.371094 173.671875 147.082031 174.304688 L 151.285156 178.054688 C 152 178.6875 152.417969 179.972656 152.21875 180.90625 L 151.03125 186.453125 C 150.828125 187.386719 151.34375 187.761719 152.171875 187.285156 L 157.050781 184.488281 C 157.464844 184.25 158.015625 184.128906 158.5625 184.128906 C 159.105469 184.132812 159.648438 184.25 160.058594 184.488281 L 164.90625 187.257812 C 165.738281 187.730469 166.253906 187.355469 166.058594 186.421875 L 164.910156 180.964844 C 164.714844 180.03125 165.132812 178.742188 165.84375 178.105469 L 170.050781 174.308594 C 170.757812 173.671875 170.5625 173.066406 169.613281 172.964844 Z M 199.367188 172.964844 L 193.726562 172.371094 C 192.777344 172.269531 191.683594 171.472656 191.292969 170.601562 L 189.003906 165.46875 C 188.8125 165.042969 188.566406 164.824219 188.316406 164.816406 C 188.054688 164.800781 187.789062 165.019531 187.589844 165.46875 L 185.304688 170.609375 C 184.914062 171.480469 183.820312 172.277344 182.875 172.375 L 177.265625 172.96875 C 176.316406 173.066406 176.121094 173.671875 176.835938 174.304688 L 181.039062 178.054688 C 181.753906 178.6875 182.171875 179.972656 181.972656 180.90625 L 180.78125 186.453125 C 180.582031 187.386719 181.097656 187.761719 181.925781 187.285156 L 186.804688 184.488281 C 187.21875 184.25 187.769531 184.128906 188.316406 184.128906 C 188.859375 184.132812 189.402344 184.25 189.816406 184.488281 L 194.660156 187.257812 C 195.488281 187.730469 196.007812 187.355469 195.8125 186.421875 L 194.664062 180.964844 C 194.46875 180.03125 194.886719 178.742188 195.597656 178.105469 L 199.804688 174.308594 C 200.515625 173.671875 200.316406 173.066406 199.367188 172.964844 " fill-opacity="1" fill-rule="nonzero"/></g><g clip-path="url(#32ae4c900e)"><path fill="#e6dede" d="M 210.332031 172.320312 L 214.054688 163.023438 L 217.816406 172.285156 L 227.675781 172.910156 L 220.207031 179.261719 L 222.652344 189.171875 L 214.121094 184.015625 L 205.804688 189.289062 L 207.96875 179.433594 L 200.554688 173.078125 L 210.332031 172.320312 " fill-opacity="1" fill-rule="nonzero"/></g></svg>