<svg width="20" height="21" viewBox="0 0 20 21" fill="none" xmlns="http://www.w3.org/2000/svg">
<path d="M10 7.56982C9.20435 7.56982 8.44129 7.88589 7.87868 8.4485C7.31607 9.01111 7 9.77417 7 10.5698C7 11.3655 7.31607 12.1285 7.87868 12.6911C8.44129 13.2538 9.20435 13.5698 10 13.5698C10.7956 13.5698 11.5587 13.2538 12.1213 12.6911C12.6839 12.1285 13 11.3655 13 10.5698C13 9.77417 12.6839 9.01111 12.1213 8.4485C11.5587 7.88589 10.7956 7.56982 10 7.56982ZM10 5.56982C11.3261 5.56982 12.5979 6.09661 13.5355 7.03429C14.4732 7.97197 15 9.24374 15 10.5698C15 11.8959 14.4732 13.1677 13.5355 14.1054C12.5979 15.043 11.3261 15.5698 10 15.5698C8.67392 15.5698 7.40215 15.043 6.46447 14.1054C5.52678 13.1677 5 11.8959 5 10.5698C5 9.24374 5.52678 7.97197 6.46447 7.03429C7.40215 6.09661 8.67392 5.56982 10 5.56982ZM16.5 5.31982C16.5 5.65134 16.3683 5.96929 16.1339 6.20371C15.8995 6.43813 15.5815 6.56982 15.25 6.56982C14.9185 6.56982 14.6005 6.43813 14.3661 6.20371C14.1317 5.96929 14 5.65134 14 5.31982C14 4.9883 14.1317 4.67036 14.3661 4.43594C14.6005 4.20152 14.9185 4.06982 15.25 4.06982C15.5815 4.06982 15.8995 4.20152 16.1339 4.43594C16.3683 4.67036 16.5 4.9883 16.5 5.31982ZM10 2.56982C7.526 2.56982 7.122 2.57682 5.971 2.62782C5.187 2.66482 4.661 2.76982 4.173 2.95982C3.739 3.12782 3.426 3.32882 3.093 3.66282C2.78001 3.96522 2.53935 4.33441 2.389 4.74282C2.199 5.23282 2.094 5.75782 2.058 6.54082C2.006 7.64482 2 8.03082 2 10.5698C2 13.0438 2.007 13.4478 2.058 14.5988C2.095 15.3818 2.2 15.9088 2.389 16.3958C2.559 16.8308 2.759 17.1438 3.091 17.4758C3.428 17.8118 3.741 18.0128 4.171 18.1788C4.665 18.3698 5.191 18.4758 5.971 18.5118C7.075 18.5638 7.461 18.5698 10 18.5698C12.474 18.5698 12.878 18.5628 14.029 18.5118C14.811 18.4748 15.338 18.3698 15.826 18.1808C16.259 18.0118 16.574 17.8108 16.906 17.4788C17.243 17.1418 17.444 16.8288 17.61 16.3988C17.8 15.9058 17.906 15.3788 17.942 14.5988C17.994 13.4948 18 13.1088 18 10.5698C18 8.09582 17.993 7.69182 17.942 6.54082C17.905 5.75882 17.8 5.23082 17.61 4.74282C17.4593 4.33483 17.2191 3.96578 16.907 3.66282C16.6047 3.34967 16.2355 3.10899 15.827 2.95882C15.337 2.76882 14.811 2.66382 14.029 2.62782C12.925 2.57582 12.539 2.56982 10 2.56982ZM10 0.569824C12.717 0.569824 13.056 0.579824 14.122 0.629824C15.187 0.679824 15.912 0.846824 16.55 1.09482C17.21 1.34882 17.766 1.69282 18.322 2.24782C18.8305 2.74772 19.224 3.35241 19.475 4.01982C19.722 4.65682 19.89 5.38282 19.94 6.44782C19.987 7.51382 20 7.85282 20 10.5698C20 13.2868 19.99 13.6258 19.94 14.6918C19.89 15.7568 19.722 16.4818 19.475 17.1198C19.2247 17.7876 18.8311 18.3924 18.322 18.8918C17.822 19.4001 17.2173 19.7936 16.55 20.0448C15.913 20.2918 15.187 20.4598 14.122 20.5098C13.056 20.5568 12.717 20.5698 10 20.5698C7.283 20.5698 6.944 20.5598 5.878 20.5098C4.813 20.4598 4.088 20.2918 3.45 20.0448C2.78233 19.7943 2.17753 19.4008 1.678 18.8918C1.16941 18.392 0.775931 17.7873 0.525 17.1198C0.277 16.4828 0.11 15.7568 0.0599999 14.6918C0.0129999 13.6258 0 13.2868 0 10.5698C0 7.85282 0.00999994 7.51382 0.0599999 6.44782C0.11 5.38182 0.277 4.65782 0.525 4.01982C0.775236 3.352 1.1688 2.74715 1.678 2.24782C2.17767 1.73906 2.78243 1.34555 3.45 1.09482C4.088 0.846824 4.812 0.679824 5.878 0.629824C6.944 0.582824 7.283 0.569824 10 0.569824Z" fill="#004236"/>
</svg>
