<svg width="20" height="17" viewBox="0 0 20 17" fill="none" xmlns="http://www.w3.org/2000/svg">
<path d="M19.543 3.06782C20 4.84982 20 8.56982 20 8.56982C20 8.56982 20 12.2898 19.543 14.0718C19.289 15.0568 18.546 15.8318 17.605 16.0938C15.896 16.5698 10 16.5698 10 16.5698C10 16.5698 4.107 16.5698 2.395 16.0938C1.45 15.8278 0.708 15.0538 0.457 14.0718C2.98023e-08 12.2898 0 8.56982 0 8.56982C0 8.56982 2.98023e-08 4.84982 0.457 3.06782C0.711 2.08282 1.454 1.30782 2.395 1.04582C4.107 0.569824 10 0.569824 10 0.569824C10 0.569824 15.896 0.569824 17.605 1.04582C18.55 1.31182 19.292 2.08582 19.543 3.06782ZM8 12.0698L14 8.56982L8 5.06982V12.0698Z" fill="#004236"/>
</svg>
