<svg width="22" height="17" viewBox="0 0 22 17" fill="none" xmlns="http://www.w3.org/2000/svg">
<path d="M21.1621 2.22575C20.3986 2.56344 19.589 2.78522 18.7601 2.88375C19.6338 2.36118 20.2878 1.53876 20.6001 0.569751C19.7801 1.05775 18.8811 1.39975 17.9441 1.58475C17.3147 0.91133 16.4804 0.464714 15.571 0.314336C14.6616 0.163957 13.728 0.318242 12.9153 0.753204C12.1026 1.18817 11.4564 1.87943 11.0772 2.71954C10.6979 3.55965 10.6068 4.50153 10.8181 5.39875C9.15516 5.3154 7.52838 4.88327 6.04334 4.13041C4.55829 3.37756 3.24818 2.3208 2.19805 1.02875C1.82634 1.6672 1.63101 2.39298 1.63205 3.13175C1.63205 4.58175 2.37005 5.86275 3.49205 6.61275C2.82806 6.59185 2.17869 6.41253 1.59805 6.08975V6.14175C1.59825 7.10745 1.93242 8.04337 2.5439 8.79081C3.15538 9.53825 4.00653 10.0512 4.95305 10.2428C4.33667 10.4098 3.69036 10.4344 3.06305 10.3148C3.32992 11.146 3.85006 11.8729 4.55064 12.3939C5.25123 12.9148 6.09718 13.2035 6.97005 13.2198C6.10253 13.9011 5.10923 14.4047 4.04693 14.7019C2.98464 14.9991 1.87418 15.084 0.779053 14.9518C2.69075 16.1812 4.91615 16.8339 7.18905 16.8317C14.8821 16.8317 19.0891 10.4588 19.0891 4.93175C19.0891 4.75175 19.0841 4.56975 19.0761 4.39175C19.8949 3.79992 20.6017 3.06677 21.1631 2.22675L21.1621 2.22575Z" fill="#004236"/>
</svg>
