<svg width="22" height="22" viewBox="0 0 22 22" fill="none" xmlns="http://www.w3.org/2000/svg">
<path d="M11 1C8.8269 1 7.07222 2.76908 7.07222 4.92978V5.28089H4.66965C4.08926 5.28089 3.53586 5.6185 3.42788 6.18569L1.01182 19.7711C0.957827 20.1222 1.0928 20.4463 1.33576 20.6624C1.57871 20.8785 1.90266 21 2.25359 21H19.7464C20.0973 21 20.4348 20.8785 20.6642 20.6624C20.9072 20.4463 21.0422 20.1087 20.9882 19.7711L18.5721 6.19919C18.4776 5.63201 17.9107 5.28089 17.3303 5.2944H14.9143V4.92978C14.9278 2.76908 13.1596 1 11 1ZM11 1.71573C12.7817 1.71573 14.2124 3.1472 14.2124 4.92978V5.28089H7.78759V4.92978C7.78759 3.1472 9.21832 1.71573 11 1.71573ZM4.65615 5.99662H7.07222V7.7792C7.07222 7.98177 7.23419 8.13032 7.43665 8.13032C7.63911 8.13032 7.78759 7.96826 7.78759 7.7792V5.99662H14.2124V7.7792C14.2124 7.98177 14.3609 8.14382 14.5634 8.14382C14.7658 8.14382 14.9278 7.99527 14.9278 7.79271V7.7792V5.99662H17.3438C17.6543 5.99662 17.8568 6.17218 17.8837 6.32073L20.2863 19.9061C20.2998 20.0007 20.2728 20.0682 20.1918 20.1492C20.0973 20.2302 19.9489 20.2978 19.7599 20.2978H2.25359C2.06463 20.2978 1.91615 20.2302 1.82167 20.1492C1.72719 20.0682 1.70019 19.9872 1.71369 19.9061L4.11625 6.32073C4.14325 6.18569 4.35921 5.99662 4.65615 5.99662Z" fill="#ffffff" stroke="#ffffff" stroke-width="1.2"/>
</svg>
