<svg xmlns="http://www.w3.org/2000/svg" xmlns:xlink="http://www.w3.org/1999/xlink" width="500" zoomAndPan="magnify" viewBox="0 0 375 374.999991" height="500" preserveAspectRatio="xMidYMid meet" version="1.0"><defs><clipPath id="bad5f02c30"><path d="M 112.5 175.636719 L 262.5 175.636719 L 262.5 199.636719 L 112.5 199.636719 Z M 112.5 175.636719 " clip-rule="nonzero"/></clipPath></defs><g clip-path="url(#bad5f02c30)"><path fill="#3d857e" d="M 137.039062 185.175781 L 131.515625 190.5625 C 131.398438 190.671875 131.347656 190.835938 131.375 190.992188 L 132.679688 198.597656 C 132.746094 198.996094 132.328125 199.300781 131.96875 199.113281 L 125.140625 195.523438 C 125 195.445312 124.828125 195.445312 124.6875 195.523438 L 117.859375 199.113281 C 117.5 199.300781 117.082031 198.996094 117.148438 198.597656 L 118.453125 190.992188 C 118.480469 190.835938 118.429688 190.671875 118.3125 190.5625 L 112.789062 185.175781 C 112.5 184.894531 112.65625 184.402344 113.058594 184.34375 L 120.695312 183.234375 C 120.851562 183.210938 120.992188 183.109375 121.0625 182.964844 L 124.476562 176.046875 C 124.65625 175.683594 125.171875 175.683594 125.351562 176.046875 L 128.765625 182.964844 C 128.835938 183.109375 128.976562 183.210938 129.132812 183.234375 L 136.769531 184.34375 C 137.171875 184.402344 137.328125 184.894531 137.039062 185.175781 Z M 168.0625 184.34375 L 160.425781 183.234375 C 160.265625 183.210938 160.128906 183.109375 160.058594 182.964844 L 156.644531 176.046875 C 156.464844 175.683594 155.949219 175.683594 155.769531 176.046875 L 152.355469 182.964844 C 152.285156 183.109375 152.144531 183.210938 151.988281 183.234375 L 144.351562 184.34375 C 143.949219 184.402344 143.789062 184.894531 144.082031 185.175781 L 149.605469 190.5625 C 149.71875 190.671875 149.773438 190.835938 149.746094 190.992188 L 148.441406 198.597656 C 148.375 198.996094 148.792969 199.300781 149.148438 199.113281 L 155.980469 195.523438 C 156.121094 195.445312 156.289062 195.445312 156.433594 195.523438 L 163.261719 199.113281 C 163.621094 199.300781 164.039062 198.996094 163.96875 198.597656 L 162.667969 190.992188 C 162.640625 190.835938 162.691406 190.671875 162.804688 190.5625 L 168.332031 185.175781 C 168.621094 184.894531 168.460938 184.402344 168.0625 184.34375 Z M 199.355469 184.34375 L 191.71875 183.234375 C 191.5625 183.210938 191.421875 183.109375 191.351562 182.964844 L 187.9375 176.046875 C 187.757812 175.683594 187.242188 175.683594 187.0625 176.046875 L 183.648438 182.964844 C 183.574219 183.109375 183.4375 183.210938 183.28125 183.234375 L 175.644531 184.34375 C 175.242188 184.402344 175.082031 184.894531 175.375 185.175781 L 180.898438 190.5625 C 181.011719 190.671875 181.066406 190.835938 181.039062 190.992188 L 179.734375 198.597656 C 179.664062 198.996094 180.085938 199.300781 180.441406 199.113281 L 187.273438 195.523438 C 187.414062 195.445312 187.582031 195.445312 187.726562 195.523438 L 194.554688 199.113281 C 194.914062 199.300781 195.332031 198.996094 195.261719 198.597656 L 193.957031 190.992188 C 193.933594 190.835938 193.984375 190.671875 194.097656 190.5625 L 199.625 185.175781 C 199.914062 184.894531 199.753906 184.402344 199.355469 184.34375 Z M 230.648438 184.34375 L 223.011719 183.234375 C 222.855469 183.210938 222.714844 183.109375 222.644531 182.964844 L 219.230469 176.046875 C 219.050781 175.683594 218.535156 175.683594 218.355469 176.046875 L 214.941406 182.964844 C 214.871094 183.109375 214.730469 183.210938 214.574219 183.234375 L 206.9375 184.34375 C 206.535156 184.402344 206.375 184.894531 206.667969 185.175781 L 212.191406 190.5625 C 212.304688 190.671875 212.359375 190.835938 212.332031 190.992188 L 211.027344 198.597656 C 210.960938 198.996094 211.378906 199.300781 211.734375 199.113281 L 218.566406 195.523438 C 218.707031 195.445312 218.875 195.445312 219.019531 195.523438 L 225.847656 199.113281 C 226.207031 199.300781 226.625 198.996094 226.554688 198.597656 L 225.253906 190.992188 C 225.226562 190.835938 225.277344 190.671875 225.390625 190.5625 L 230.917969 185.175781 C 231.207031 184.894531 231.046875 184.402344 230.648438 184.34375 Z M 262.210938 185.175781 C 262.5 184.894531 262.34375 184.402344 261.941406 184.34375 L 254.304688 183.234375 C 254.148438 183.210938 254.007812 183.109375 253.9375 182.964844 L 250.523438 176.046875 C 250.34375 175.683594 249.828125 175.683594 249.648438 176.046875 L 246.234375 182.964844 C 246.164062 183.109375 246.023438 183.210938 245.867188 183.234375 L 238.230469 184.34375 C 237.828125 184.402344 237.671875 184.894531 237.960938 185.175781 L 243.484375 190.5625 C 243.601562 190.671875 243.652344 190.835938 243.625 190.992188 L 242.320312 198.597656 C 242.253906 198.996094 242.671875 199.300781 243.027344 199.113281 L 249.859375 195.523438 C 250 195.445312 250.171875 195.445312 250.3125 195.523438 L 257.140625 199.113281 C 257.5 199.300781 257.917969 198.996094 257.851562 198.597656 L 256.546875 190.992188 C 256.519531 190.835938 256.570312 190.671875 256.6875 190.5625 Z M 262.210938 185.175781 " fill-opacity="1" fill-rule="nonzero"/></g></svg>