<svg width="22" height="20" viewBox="0 0 22 20" fill="none" xmlns="http://www.w3.org/2000/svg">
<path fill-rule="evenodd" clip-rule="evenodd" d="M21 6.56699C20.9989 5.38232 20.6022 4.23195 19.8728 3.2985C19.1433 2.36505 18.1229 1.70203 16.9736 1.4147C15.8243 1.12738 14.612 1.23222 13.5291 1.71258C12.4462 2.19293 11.5548 3.02128 10.9964 4.0661C10.6281 3.37618 10.1121 2.77609 9.48508 2.30871C8.85807 1.84132 8.13558 1.51818 7.36922 1.36235C6.60286 1.20653 5.81155 1.22187 5.0518 1.40729C4.29206 1.5927 3.58264 1.94361 2.97422 2.43495C2.3658 2.92629 1.8734 3.54593 1.53218 4.2496C1.19097 4.95328 1.00937 5.72363 1.00035 6.50562C0.991337 7.28761 1.15513 8.06194 1.48003 8.77329C1.80492 9.48465 2.28291 10.1155 2.87984 10.6207H2.86847C2.86847 10.6207 9.63225 17.8438 10.112 18.3598C10.225 18.4815 10.3618 18.5785 10.514 18.6448C10.6662 18.7111 10.8304 18.7453 10.9964 18.7453C11.1624 18.7453 11.3266 18.7111 11.4788 18.6448C11.6309 18.5785 11.7678 18.4815 11.8808 18.3598C12.3696 17.8438 19.1243 10.6298 19.1243 10.6298C19.7148 10.1308 20.1888 9.50841 20.5128 8.80647C20.8369 8.10454 21.0032 7.34011 21 6.56699V6.56699Z" stroke="#044236" stroke-width="2" stroke-linejoin="round"/>
</svg>
