<svg xmlns="http://www.w3.org/2000/svg" xmlns:xlink="http://www.w3.org/1999/xlink" width="500" zoomAndPan="magnify" viewBox="0 0 375 374.999991" height="500" preserveAspectRatio="xMidYMid meet" version="1.0"><defs><clipPath id="cfc476037a"><path d="M 117.539062 105.945312 L 232.960938 105.945312 L 232.960938 221.363281 L 117.539062 221.363281 Z M 117.539062 105.945312 " clip-rule="nonzero"/></clipPath><clipPath id="3253363fc2"><path d="M 175.25 105.945312 C 143.378906 105.945312 117.539062 131.785156 117.539062 163.65625 C 117.539062 195.527344 143.378906 221.363281 175.25 221.363281 C 207.121094 221.363281 232.960938 195.527344 232.960938 163.65625 C 232.960938 131.785156 207.121094 105.945312 175.25 105.945312 Z M 175.25 105.945312 " clip-rule="nonzero"/></clipPath><clipPath id="ef8302f632"><path d="M 163 139.8125 L 187.75 139.8125 L 187.75 187.8125 L 163 187.8125 Z M 163 139.8125 " clip-rule="nonzero"/></clipPath></defs><g clip-path="url(#cfc476037a)"><g clip-path="url(#3253363fc2)"><path fill="#004236" d="M 117.539062 105.945312 L 232.960938 105.945312 L 232.960938 221.363281 L 117.539062 221.363281 Z M 117.539062 105.945312 " fill-opacity="1" fill-rule="nonzero"/></g></g><g clip-path="url(#ef8302f632)"><path fill="#ffffff" d="M 165.128906 163.660156 L 187.535156 186.222656 L 186.453125 187.320312 L 163.019531 163.660156 L 186.453125 139.988281 L 187.535156 141.078125 Z M 165.128906 163.660156 " fill-opacity="1" fill-rule="nonzero"/></g></svg>