<svg width="50" height="51" viewBox="0 0 50 51" fill="none" xmlns="http://www.w3.org/2000/svg">
<path d="M33.9073 0.778161C32.6468 1.04203 31.7645 2.0975 31.7645 3.54878C31.7645 4.86812 32.2687 5.65972 33.6552 6.18746C44.3691 10.4093 50.6713 21.8876 47.016 32.5743C43.7388 42.0735 35.0417 48.9341 24.832 48.9341C14.6223 48.9341 5.92512 42.0735 2.64793 32.5743C-1.0074 21.8876 5.29489 10.4093 16.0088 6.18746C17.3953 5.65972 17.8995 4.73618 17.8995 3.54878C17.8995 2.22944 17.0171 1.04203 15.7567 0.778161C12.1014 0.118491 -0.125078 9.09 0.000967433 24.3944C0.127013 38.9071 11.3451 50.2534 24.832 50.2534C38.4449 50.2534 49.5369 38.9071 49.663 24.3944C49.789 9.09 37.5626 0.118491 33.9073 0.778161Z" fill="white"/>
<path d="M46.3857 30.5956C44.2429 27.2972 41.0918 24.1308 36.6802 22.0198C35.6718 21.4921 35.2937 20.9644 35.2937 19.9089C35.2937 18.7215 36.176 17.666 37.4365 17.666C39.8313 17.7979 44.9992 24.3947 46.3857 30.5956Z" fill="white"/>
<path d="M35.798 9.22266C34.4114 9.22266 33.4031 10.4101 33.4031 11.7294C33.4031 12.7849 33.7812 13.5765 34.9156 14.1042C41.0919 17.0068 44.7472 22.1522 46.764 28.0892C47.8984 17.7984 39.0751 9.35459 35.798 9.22266Z" fill="white"/>
<path d="M3.27808 30.5956C5.42086 27.2972 8.57201 24.1308 12.9836 22.0198C13.992 21.4921 14.3701 20.9644 14.3701 19.9089C14.3701 18.7215 13.4878 17.666 12.2273 17.666C9.83246 17.7979 4.66458 24.3947 3.27808 30.5956Z" fill="white"/>
<path d="M13.866 9.22266C15.2526 9.22266 16.2609 10.4101 16.2609 11.7294C16.2609 12.7849 15.8828 13.5765 14.7484 14.1042C8.57212 17.0068 4.91679 22.1522 2.90005 28.0892C1.76564 17.7984 10.5889 9.35459 13.866 9.22266Z" fill="white"/>
</svg>
