<svg xmlns="http://www.w3.org/2000/svg" xmlns:xlink="http://www.w3.org/1999/xlink" width="500" zoomAndPan="magnify" viewBox="0 0 375 374.999991" height="500" preserveAspectRatio="xMidYMid meet" version="1.0"><defs><g/><clipPath id="d03873383e"><path d="M 116.667969 131.25 L 243.75 131.25 L 243.75 258.332031 L 116.667969 258.332031 Z M 116.667969 131.25 " clip-rule="nonzero"/></clipPath><clipPath id="0e97caa676"><path d="M 180.207031 131.25 C 145.117188 131.25 116.667969 159.699219 116.667969 194.792969 C 116.667969 229.882812 145.117188 258.332031 180.207031 258.332031 C 215.300781 258.332031 243.75 229.882812 243.75 194.792969 C 243.75 159.699219 215.300781 131.25 180.207031 131.25 Z M 180.207031 131.25 " clip-rule="nonzero"/></clipPath></defs><g clip-path="url(#d03873383e)"><g clip-path="url(#0e97caa676)"><path fill="#004236" d="M 116.667969 131.25 L 243.75 131.25 L 243.75 258.332031 L 116.667969 258.332031 Z M 116.667969 131.25 " fill-opacity="1" fill-rule="nonzero"/></g></g><g fill="#ffffff" fill-opacity="1"><g transform="translate(134.966376, 217.558694)"><g><path d="M 2.125 0 L 2.125 -47.921875 L 12 -47.921875 L 16.40625 -25 L 16.40625 -47.921875 L 25.671875 -47.921875 L 25.671875 0 L 16.296875 0 L 11.5 -24 L 11.5 0 Z M 2.125 0 "/></g></g></g><g fill="#ffffff" fill-opacity="1"><g transform="translate(162.746127, 217.558694)"><g><path d="M 2.125 0 L 2.125 -47.921875 L 21.3125 -47.921875 L 21.3125 -38.671875 L 11.890625 -38.671875 L 11.890625 -29.34375 L 20.921875 -29.34375 L 20.921875 -20.3125 L 11.890625 -20.3125 L 11.890625 -9.3125 L 21.921875 -9.3125 L 21.921875 0 Z M 2.125 0 "/></g></g></g><g fill="#ffffff" fill-opacity="1"><g transform="translate(185.728567, 217.558694)"><g><path d="M 5.859375 0 L 0.71875 -47.921875 L 10.09375 -47.921875 L 12.78125 -17.6875 L 15.453125 -47.921875 L 24.390625 -47.921875 L 26.953125 -17.6875 L 29.515625 -47.921875 L 39 -47.921875 L 33.75 0 L 22.265625 0 L 19.859375 -23.09375 L 17.578125 0 Z M 5.859375 0 "/></g></g></g></svg>