<svg width="18" height="20" viewBox="0 0 18 20" fill="none" xmlns="http://www.w3.org/2000/svg">
<path d="M9.00004 15C12.662 15 15.865 16.575 17.607 18.925L15.765 19.796C14.347 18.116 11.847 17 9.00004 17C6.15304 17 3.65304 18.116 2.23504 19.796L0.394043 18.924C2.13604 16.574 5.33804 15 9.00004 15ZM9.00004 0C10.3261 0 11.5979 0.526784 12.5356 1.46447C13.4733 2.40215 14 3.67392 14 5V8C14 9.28846 13.5025 10.5272 12.6114 11.4578C11.7203 12.3884 10.5043 12.9391 9.21704 12.995L9.00004 13C7.67396 13 6.40219 12.4732 5.46451 11.5355C4.52683 10.5979 4.00004 9.32608 4.00004 8V5C4.00012 3.71154 4.49758 2.47284 5.3887 1.54222C6.27982 0.611607 7.49579 0.0609194 8.78304 0.00500011L9.00004 0ZM9.00004 2C8.23483 1.99996 7.49853 2.29233 6.94178 2.81728C6.38504 3.34224 6.04994 4.06011 6.00504 4.824L6.00004 5V8C5.99929 8.7809 6.30306 9.53133 6.84681 10.0918C7.39057 10.6523 8.13144 10.9787 8.91201 11.0016C9.69258 11.0245 10.4513 10.7422 11.027 10.2145C11.6027 9.68691 11.95 8.9556 11.995 8.176L12 8V5C12 4.20435 11.684 3.44129 11.1214 2.87868C10.5588 2.31607 9.79569 2 9.00004 2Z" fill="white"/>
</svg>
