<svg xmlns="http://www.w3.org/2000/svg" xmlns:xlink="http://www.w3.org/1999/xlink" width="500" zoomAndPan="magnify" viewBox="0 0 375 374.999991" height="500" preserveAspectRatio="xMidYMid meet" version="1.0"><defs><clipPath id="42054ec621"><path d="M 117.539062 105.945312 L 232.960938 105.945312 L 232.960938 221.363281 L 117.539062 221.363281 Z M 117.539062 105.945312 " clip-rule="nonzero"/></clipPath><clipPath id="dafea4cb2f"><path d="M 175.25 105.945312 C 143.378906 105.945312 117.539062 131.785156 117.539062 163.65625 C 117.539062 195.527344 143.378906 221.363281 175.25 221.363281 C 207.121094 221.363281 232.960938 195.527344 232.960938 163.65625 C 232.960938 131.785156 207.121094 105.945312 175.25 105.945312 Z M 175.25 105.945312 " clip-rule="nonzero"/></clipPath><clipPath id="e6ce97db81"><path d="M 162.898438 139.523438 L 187.601562 139.523438 L 187.601562 187.523438 L 162.898438 187.523438 Z M 162.898438 139.523438 " clip-rule="nonzero"/></clipPath></defs><g clip-path="url(#42054ec621)"><g clip-path="url(#dafea4cb2f)"><path fill="#004236" d="M 117.539062 105.945312 L 232.960938 105.945312 L 232.960938 221.363281 L 117.539062 221.363281 Z M 117.539062 105.945312 " fill-opacity="1" fill-rule="nonzero"/></g></g><g clip-path="url(#e6ce97db81)"><path fill="#ffffff" d="M 185.492188 163.65625 L 162.808594 186.5 L 163.902344 187.609375 L 187.628906 163.65625 L 163.902344 139.691406 L 162.808594 140.792969 Z M 185.492188 163.65625 " fill-opacity="1" fill-rule="nonzero"/></g></svg>